<?xml version="1.0" encoding="utf-8"?>
<!-- Generator: Adobe Illustrator 24.2.3, SVG Export Plug-In . SVG Version: 6.00 Build 0)  -->
<svg version="1.1" xmlns="http://www.w3.org/2000/svg" xmlns:xlink="http://www.w3.org/1999/xlink" x="0px" y="0px"
	 viewBox="0 0 768 512" style="enable-background:new 0 0 768 512;" xml:space="preserve">
<style type="text/css">
	.st0{fill:#FFFFFF;stroke:#000000;stroke-width:5;stroke-miterlimit:10;}
	.st1{fill:#FFFFFF;}
	.st2{fill:none;stroke:#000000;stroke-width:5;stroke-miterlimit:10;}
</style>
<g id="Layer_1">
	<circle class="st0" cx="128.5" cy="447.5" r="32"/>
	<circle class="st0" cx="289.5" cy="448.5" r="32"/>
	<circle class="st0" cx="448.5" cy="447.5" r="32"/>
	<circle class="st0" cx="608.5" cy="448.5" r="32"/>
	<circle class="st0" cx="127.06" cy="287.04" r="32"/>
	<circle class="st0" cx="607.06" cy="287.04" r="32"/>
	<circle class="st0" cx="287.06" cy="127.04" r="32"/>
	<circle class="st0" cx="447.06" cy="127.04" r="32"/>
	<g>
		<line class="st1" x1="129.5" y1="415.5" x2="127.5" y2="319.5"/>
		<g>
			<line class="st2" x1="129.5" y1="415.5" x2="127.92" y2="339.88"/>
			<g>
				<path d="M128.02,344.36l-8.89,5.66l-0.21-0.3l5.53-14.81c1.02-5.14,2.04-10.28,3.06-15.42c1.23,5.09,2.46,10.19,3.7,15.28
					l6.14,14.56l-0.15,0.31L128.02,344.36z"/>
			</g>
		</g>
	</g>
	<g>
		<line class="st1" x1="288.43" y1="416.04" x2="286.43" y2="160"/>
		<g>
			<line class="st2" x1="288.43" y1="416.04" x2="286.59" y2="180.38"/>
			<g>
				<path d="M286.63,184.87l-8.96,5.55l-0.21-0.31l5.72-14.73c1.09-5.13,2.17-10.25,3.26-15.38c1.17,5.11,2.33,10.22,3.5,15.32
					l5.95,14.64l-0.15,0.31L286.63,184.87z"/>
			</g>
		</g>
	</g>
	<g>
		<line class="st1" x1="449.83" y1="415.06" x2="447.83" y2="159.02"/>
		<g>
			<line class="st2" x1="449.83" y1="415.06" x2="447.98" y2="179.4"/>
			<g>
				<path d="M448.02,183.89l-8.96,5.55l-0.21-0.31l5.72-14.73c1.09-5.13,2.17-10.25,3.26-15.38c1.17,5.11,2.33,10.22,3.5,15.32
					l5.95,14.64l-0.15,0.31L448.02,183.89z"/>
			</g>
		</g>
	</g>
	<g>
		<line class="st1" x1="144.5" y1="256.5" x2="256.5" y2="144.5"/>
		<g>
			<line class="st2" x1="144.5" y1="256.5" x2="242.09" y2="158.91"/>
			<g>
				<path d="M238.92,162.08l-10.24-2.5l0.07-0.36l14.51-6.26c4.41-2.82,8.83-5.65,13.24-8.47c-2.82,4.41-5.65,8.83-8.47,13.24
					l-6.26,14.51l-0.33,0.11L238.92,162.08z"/>
			</g>
		</g>
	</g>
	<g>
		<line class="st1" x1="160.5" y1="272.5" x2="416.5" y2="144.5"/>
		<g>
			<line class="st2" x1="160.5" y1="272.5" x2="398.27" y2="153.61"/>
			<g>
				<path d="M394.26,155.62l-8.93-5.61l0.18-0.32l15.75-1.35c5.08-1.28,10.16-2.56,15.24-3.84c-4.07,3.3-8.15,6.59-12.22,9.89
					l-10.53,11.79l-0.34,0L394.26,155.62z"/>
			</g>
		</g>
	</g>
	<g>
		<line class="st1" x1="608.5" y1="416.5" x2="607.5" y2="320"/>
		<g>
			<line class="st2" x1="608.5" y1="416.5" x2="607.71" y2="340.38"/>
			<g>
				<path d="M607.76,344.87l-8.95,5.57l-0.21-0.31l5.68-14.75c1.07-5.13,2.14-10.26,3.22-15.39c1.18,5.11,2.36,10.21,3.54,15.32
					l5.99,14.63l-0.15,0.31L607.76,344.87z"/>
			</g>
		</g>
	</g>
	<path d="M135.83,276v-2.96c0-0.41-0.34-0.75-0.75-0.75h-16.5c-0.41,0-0.75,0.34-0.75,0.75v9.5l-6.21,1.78
		c-0.39,0.11-0.62,0.52-0.51,0.92c0,0,0,0,0,0l6.74,23.95l0.02,0.05c0.03,0.12,0.09,0.23,0.18,0.32c0.02,0.03,0.04,0.05,0.08,0.07
		c0.01,0.02,0.04,0.03,0.05,0.05c0.04,0.02,0.08,0.04,0.12,0.06c0.04,0.02,0.09,0.04,0.14,0.05c0.05,0.01,0.1,0.01,0.15,0.02h16.5
		c0.37,0,0.69-0.28,0.74-0.64l2.25-15.75c0.01-0.07,0.01-0.14,0-0.2L135.83,276z M119.33,273.79h15v1.5h-15V273.79z M112.76,285.56
		l5.07-1.46v1.56l-4.66,1.34L112.76,285.56z M117.83,287.22v16.38l-4.25-15.16L117.83,287.22z M134.43,308.29h-15.1v-31.5h15.09
		l2.15,16.49L134.43,308.29z"/>
	<path d="M127.21,291.79c-3.11,0-5.62-2.52-5.62-5.62v-6.38c0-0.41,0.34-0.75,0.75-0.75c0,0,0,0,0,0h9.75
		c0.41,0,0.75,0.34,0.75,0.75c0,0,0,0,0,0v6.38C132.83,289.27,130.31,291.78,127.21,291.79z M123.08,280.54v5.62
		c0,2.28,1.85,4.12,4.12,4.12c2.28,0,4.12-1.85,4.12-4.12v-5.62H123.08z"/>
	<path d="M461.79,459.74c-0.08-0.14-0.17-0.26-0.27-0.38c-0.22-0.32-0.47-0.62-0.74-0.89c-0.02-0.03-0.04-0.05-0.05-0.07l-9.17-9.16
		c-0.19-0.19-0.29-0.44-0.29-0.71v-22.37c0-0.55-0.45-1-1-1h-14c-0.55,0-1,0.45-1,1v28.17c0,0.8,0.32,1.56,0.88,2.12l13.26,13.27
		c0.04,0.05,0.09,0.09,0.14,0.12c0.01,0.02,0.02,0.04,0.04,0.05c3.21,3.03,8.27,2.88,11.3-0.33
		C463.41,466.88,463.78,462.83,461.79,459.74z M437.27,427.16h12v4h-12V427.16z M437.27,454.33v-21.17h12v15.37
		c0,0.8,0.31,1.56,0.88,2.12l7.68,7.69c-4.31,0.82-7.67,4.22-8.41,8.55l-11.86-11.85C437.38,454.85,437.27,454.59,437.27,454.33z
		 M460.62,466.32c-0.22,0.55-0.53,1.07-0.9,1.53c-0.13,0.15-0.27,0.31-0.41,0.45c-1.28,1.3-3.09,1.94-4.9,1.73
		c-0.32-0.03-0.63-0.09-0.93-0.18c-0.02,0-0.03,0-0.04-0.01c-0.16-0.04-0.32-0.09-0.47-0.15c-0.02-0.01-0.03-0.01-0.05-0.02
		c-0.16-0.06-0.32-0.13-0.47-0.21c-0.15-0.07-0.3-0.15-0.44-0.24c-0.11-0.07-0.23-0.14-0.33-0.21c-0.13-0.09-0.24-0.18-0.36-0.27
		c-0.02-0.01-0.03-0.03-0.05-0.04v-0.04c0-4.63,3.72-8.41,8.35-8.5l0.02,0.02c0.1,0.11,0.2,0.23,0.28,0.36
		c0.02,0.03,0.04,0.05,0.06,0.08c0.1,0.14,0.19,0.28,0.27,0.43c0.1,0.15,0.18,0.31,0.25,0.47v0.01c0.08,0.16,0.14,0.32,0.2,0.48
		c0.05,0.13,0.09,0.27,0.13,0.41c0.05,0.17,0.09,0.34,0.12,0.51c0.04,0.18,0.07,0.37,0.08,0.56c0.02,0.19,0.03,0.38,0.03,0.57
		C461.06,464.83,460.91,465.6,460.62,466.32z"/>
	<path d="M278.45,469.55c3.03,3.21,8.09,3.36,11.3,0.33c0.02-0.01,0.03-0.03,0.04-0.05c0.05-0.03,0.1-0.07,0.14-0.12l13.26-13.27
		c0.56-0.56,0.88-1.32,0.88-2.12v-28.17c0-0.55-0.45-1-1-1h-14c-0.55,0-1,0.45-1,1v22.37c0,0.27-0.1,0.52-0.29,0.71l-9.17,9.16
		c-0.01,0.02-0.03,0.04-0.05,0.07c-0.27,0.27-0.52,0.57-0.74,0.89c-0.1,0.12-0.19,0.24-0.27,0.38
		C275.55,462.83,275.92,466.88,278.45,469.55z M302.06,431.16h-12v-4h12V431.16z M301.77,455.04l-11.86,11.85
		c-0.74-4.33-4.1-7.73-8.41-8.55l7.68-7.69c0.57-0.56,0.88-1.32,0.88-2.12v-15.37h12v21.17
		C302.06,454.59,301.96,454.85,301.77,455.04z M278.27,464.06c0-0.19,0.01-0.38,0.03-0.57c0.01-0.19,0.04-0.38,0.08-0.56
		c0.03-0.17,0.07-0.34,0.12-0.51c0.04-0.14,0.08-0.28,0.13-0.41c0.06-0.16,0.12-0.32,0.2-0.48v-0.01c0.07-0.16,0.15-0.32,0.25-0.47
		c0.08-0.15,0.17-0.29,0.27-0.43c0.02-0.03,0.04-0.05,0.06-0.08c0.08-0.13,0.18-0.25,0.28-0.36l0.02-0.02
		c4.63,0.09,8.35,3.87,8.35,8.5v0.04c-0.02,0.01-0.03,0.03-0.05,0.04c-0.12,0.09-0.23,0.18-0.36,0.27c-0.1,0.07-0.22,0.14-0.33,0.21
		c-0.14,0.09-0.29,0.17-0.44,0.24c-0.15,0.08-0.31,0.15-0.47,0.21c-0.02,0.01-0.03,0.01-0.05,0.02c-0.15,0.06-0.31,0.11-0.47,0.15
		c-0.01,0.01-0.02,0.01-0.04,0.01c-0.3,0.09-0.61,0.15-0.93,0.18c-1.81,0.21-3.62-0.43-4.9-1.73c-0.14-0.14-0.28-0.3-0.41-0.45
		c-0.37-0.46-0.68-0.98-0.9-1.53C278.43,465.6,278.28,464.83,278.27,464.06z"/>
	<path d="M470.99,124.53l-28.61-12.39c-1.19-0.52-2.57-0.21-3.43,0.76c-3.69,4.09-9.53,4.58-11.88,4.6c-1.39,0-2.59,0.96-2.9,2.31
		c-0.74,3.58-0.6,7.28,0.42,10.79v2.85c0,1.65,1.35,3,3,3h42c2.04-0.03,3.94-1.02,5.13-2.67c0.6-1.01,0.9-2.16,0.87-3.33
		C475.59,126.87,471.22,124.65,470.99,124.53z M426.13,120.25c0.11-0.44,0.5-0.75,0.96-0.75c3.24-0.03,9.28-0.75,13.35-5.26
		c0.28-0.33,0.74-0.44,1.14-0.27l3.72,1.61l-1.92,2.89c-0.3,0.45-0.19,1.07,0.27,1.37c0,0,0.01,0.01,0.01,0.01
		c0.16,0.11,0.35,0.17,0.55,0.17c0.33,0,0.65-0.17,0.83-0.45l2.12-3.18l2.02,0.87l-1.92,2.89c-0.3,0.45-0.18,1.07,0.27,1.37
		c0,0,0.01,0,0.01,0.01c0.16,0.11,0.35,0.17,0.55,0.17c0.33,0,0.65-0.17,0.83-0.45l2.12-3.18l2.02,0.87l-1.92,2.88
		c-0.31,0.46-0.19,1.08,0.27,1.39c0.17,0.11,0.36,0.17,0.56,0.17c0.33,0,0.64-0.17,0.83-0.44l2.13-3.19l2.01,0.87l-1.92,2.89
		c-0.3,0.45-0.19,1.07,0.27,1.37c0,0,0.01,0.01,0.01,0.01c0.16,0.11,0.35,0.17,0.55,0.17c0.33,0,0.65-0.17,0.83-0.45l2.12-3.18
		l11.34,4.91c0.03,0.02,2.5,1.3,3.24,3.11h-47.03C425.59,126.44,425.51,123.3,426.13,120.25z M473.02,132.72
		c-0.82,1.06-2.08,1.7-3.43,1.73h-42c-0.55,0-1-0.45-1-1v-2h46.91C473.42,131.9,473.26,132.33,473.02,132.72z"/>
	<path d="M255.71,130.45c-0.03,1.17,0.27,2.32,0.87,3.33c1.19,1.65,3.09,2.64,5.13,2.67h42c1.65,0,3-1.35,3-3v-2.85
		c1.02-3.51,1.16-7.21,0.42-10.79c-0.31-1.35-1.51-2.31-2.9-2.31c-2.35-0.02-8.19-0.51-11.88-4.6c-0.86-0.97-2.24-1.28-3.43-0.76
		l-28.61,12.39C260.08,124.65,255.71,126.87,255.71,130.45z M304.95,129.45h-47.03c0.74-1.81,3.21-3.09,3.24-3.11l11.34-4.91
		l2.12,3.18c0.18,0.28,0.5,0.45,0.83,0.45c0.2,0,0.39-0.06,0.55-0.17c0,0,0.01-0.01,0.01-0.01c0.45-0.3,0.57-0.92,0.27-1.37
		l-1.92-2.89l2.01-0.87l2.13,3.19c0.19,0.27,0.5,0.44,0.83,0.44c0.2,0,0.39-0.06,0.56-0.17c0.46-0.31,0.58-0.93,0.27-1.39
		l-1.92-2.88l2.02-0.87l2.12,3.18c0.18,0.28,0.5,0.45,0.83,0.45c0.2,0,0.39-0.06,0.55-0.17c0,0,0.01,0,0.01-0.01
		c0.45-0.3,0.57-0.92,0.27-1.37l-1.92-2.89l2.02-0.87l2.12,3.18c0.18,0.28,0.5,0.45,0.83,0.45c0.2,0,0.39-0.06,0.55-0.17
		c0,0,0.01-0.01,0.01-0.01c0.45-0.3,0.57-0.92,0.27-1.37l-1.92-2.89l3.72-1.61c0.4-0.17,0.86-0.06,1.14,0.27
		c4.07,4.51,10.11,5.23,13.35,5.26c0.46,0,0.85,0.31,0.96,0.75C305.78,123.3,305.71,126.44,304.95,129.45z M257.8,131.45h46.91v2
		c0,0.55-0.45,1-1,1h-42c-1.35-0.03-2.61-0.67-3.43-1.73C258.04,132.33,257.88,131.9,257.8,131.45z"/>
	<path d="M624.8,433.58l-13.28-4.42c-0.23-0.07-0.47-0.11-0.71-0.11H599.3c-0.24,0-0.48,0.04-0.71,0.11l-13.28,4.42
		c-0.39,0.14-0.6,0.56-0.47,0.95l3,9c0.13,0.39,0.56,0.6,0.95,0.47l3.51-1.17v21.46c0,0.41,0.34,0.75,0.75,0.75h24
		c0.41,0,0.75-0.34,0.75-0.75v-21.46l3.51,1.17c0.39,0.13,0.82-0.08,0.95-0.47l3-9C625.4,434.13,625.19,433.71,624.8,433.58z
		 M610.26,430.54c-0.42,2.87-3.08,4.86-5.95,4.45c-2.3-0.33-4.11-2.14-4.45-4.45H610.26z M621.09,442.34l-3.79-1.26
		c-0.23-0.08-0.48-0.04-0.68,0.11c-0.2,0.14-0.32,0.37-0.32,0.61v21.75h-22.5v-21.75c0-0.24-0.12-0.47-0.32-0.61
		c-0.19-0.14-0.45-0.18-0.67-0.11l-3.79,1.26l-2.53-7.58l11.89-3.96c0.56,3.68,3.99,6.22,7.67,5.66c2.92-0.44,5.22-2.74,5.66-5.66
		l11.89,3.96L621.09,442.34z"/>
	<path d="M609.56,449.29c-2.07,0-3.75-1.68-3.75-3.75v-3.75c0-0.41,0.34-0.75,0.75-0.75c0,0,0,0,0,0h6c0.41,0,0.75,0.34,0.75,0.75
		c0,0,0,0,0,0v3.75C613.31,447.61,611.63,449.29,609.56,449.29z M607.31,442.54v3c0,1.24,1.01,2.25,2.25,2.25
		c1.24,0,2.25-1.01,2.25-2.25v-3H607.31z"/>
	<path d="M618.31,267.04h-16.5c-4.97,0-9,4.03-9,9v26.25c0,0.41,0.34,0.75,0.75,0.75h6.75c0.41,0,0.75-0.34,0.75-0.75v-0.75h18v0.75
		c0,0.41,0.34,0.75,0.75,0.75h6.75c0.41,0,0.75-0.34,0.75-0.75v-26.25C627.31,271.07,623.28,267.04,618.31,267.04z M615.26,268.54
		c-0.42,2.87-3.08,4.86-5.95,4.45c-2.3-0.33-4.11-2.14-4.45-4.45H615.26z M599.56,301.54h-5.25v-1.5h5.25V301.54z M625.81,301.54
		h-5.25v-1.5h5.25V301.54z M625.81,298.54h-5.25v-18.75c0-0.41-0.34-0.75-0.75-0.75c-0.41,0-0.75,0.34-0.75,0.75v20.25h-18v-20.25
		c0-0.41-0.34-0.75-0.75-0.75c-0.41,0-0.75,0.34-0.75,0.75v18.75h-5.25v-22.5c0.01-4.14,3.36-7.49,7.5-7.5h1.55
		c0,0.03,0,0.06,0.01,0.09c0.46,3.7,3.84,6.32,7.54,5.86c3.06-0.38,5.47-2.8,5.86-5.86c0.01-0.03,0.01-0.06,0.01-0.09h1.54
		c4.14,0.01,7.49,3.36,7.5,7.5V298.54z"/>
</g>
<g id="clothes">
	<g>
		<path d="M142.78,436.54h-34.5c-1.24,0-2.25,1.01-2.25,2.25v8.42c0,0.56,0.2,1.09,0.58,1.51l12.67,14.08
			c0.17,0.19,0.37,0.34,0.59,0.46c0.33,0.18,0.7,0.28,1.08,0.28h9.17c0.38,0,0.74-0.1,1.07-0.28c0.05-0.03,0.1-0.06,0.15-0.1
			c0.01,0,0.01,0,0.01-0.01c0.16-0.1,0.3-0.21,0.43-0.35l12.67-14.08c0.37-0.41,0.58-0.95,0.58-1.51v-8.42
			C145.02,437.55,144.02,436.54,142.78,436.54z M108.58,448.67c5.24,0.72,9.48,4.63,10.63,9.8c0.18,0.77,0.28,1.56,0.31,2.35
			L108.58,448.67z M131.54,460.82c0.02-0.8,0.13-1.59,0.32-2.36c1.15-5.16,5.38-9.07,10.62-9.79L131.54,460.82z M143.53,447.05
			c-6.37,0.31-11.75,4.84-13.13,11.06c-0.25,1.04-0.37,2.1-0.37,3.17c0,0.25,0.01,0.5,0.02,0.75H121c0.01-0.25,0.02-0.5,0.02-0.75
			c0-1.07-0.12-2.13-0.36-3.17c-1.39-6.23-6.77-10.76-13.14-11.07v-4.52h36V447.05z M143.53,441.04h-36v-2.25
			c0-0.41,0.34-0.75,0.75-0.75h34.5c0.41,0,0.75,0.34,0.75,0.75V441.04z"/>
	</g>
</g>
</svg>
