<?xml version="1.0" encoding="utf-8"?>
<!-- Generator: Adobe Illustrator 24.2.3, SVG Export Plug-In . SVG Version: 6.00 Build 0)  -->
<svg version="1.1" xmlns="http://www.w3.org/2000/svg" xmlns:xlink="http://www.w3.org/1999/xlink" x="0px" y="0px"
	 viewBox="0 0 768 512" style="enable-background:new 0 0 768 512;" xml:space="preserve">
<style type="text/css">
	.st0{fill:#FFFFFF;stroke:#000000;stroke-width:5;stroke-miterlimit:10;}
	.st1{fill:#FFFFFF;}
	.st2{fill:none;stroke:#000000;stroke-width:5;stroke-miterlimit:10;}
	.st3{clip-path:url(#SVGID_2_);}
	.st4{opacity:0;clip-path:url(#SVGID_2_);fill:none;stroke:#000000;stroke-width:9.999999e-07;stroke-miterlimit:10;}
	.st5{opacity:0;fill:none;stroke:#000000;stroke-width:1.000000e-06;stroke-miterlimit:10;}
	.st6{clip-path:url(#SVGID_4_);}
	.st7{opacity:0;clip-path:url(#SVGID_4_);fill:none;stroke:#000000;stroke-width:9.999999e-07;stroke-miterlimit:10;}
	.st8{clip-path:url(#SVGID_6_);}
	.st9{opacity:0;clip-path:url(#SVGID_6_);fill:none;stroke:#000000;stroke-width:9.999999e-07;stroke-miterlimit:10;}
	.st10{clip-path:url(#SVGID_8_);}
	.st11{opacity:0;clip-path:url(#SVGID_8_);fill:none;stroke:#000000;stroke-width:9.999999e-07;stroke-miterlimit:10;}
	.st12{clip-path:url(#SVGID_10_);}
	.st13{opacity:0;clip-path:url(#SVGID_10_);fill:none;stroke:#000000;stroke-width:9.999999e-07;stroke-miterlimit:10;}
</style>
<g id="Layer_1">
	<circle class="st0" cx="-703.5" cy="447.5" r="32"/>
	<circle class="st0" cx="-542.5" cy="448.5" r="32"/>
	<circle class="st0" cx="-383.5" cy="447.5" r="32"/>
	<circle class="st0" cx="-223.5" cy="448.5" r="32"/>
	<circle class="st0" cx="-704.94" cy="287.04" r="32"/>
	<circle class="st0" cx="-224.94" cy="287.04" r="32"/>
	<circle class="st0" cx="-544.94" cy="127.04" r="32"/>
	<circle class="st0" cx="-384.94" cy="127.04" r="32"/>
	<g>
		<line class="st1" x1="-702.5" y1="415.5" x2="-704.5" y2="319.5"/>
		<g>
			<line class="st2" x1="-702.5" y1="415.5" x2="-704.08" y2="339.88"/>
			<g>
				<path d="M-703.98,344.36l-8.89,5.66l-0.21-0.3l5.53-14.81c1.02-5.14,2.04-10.28,3.06-15.42c1.23,5.09,2.46,10.19,3.7,15.28
					l6.14,14.56l-0.15,0.31L-703.98,344.36z"/>
			</g>
		</g>
	</g>
	<g>
		<line class="st1" x1="-543.57" y1="416.04" x2="-545.57" y2="160"/>
		<g>
			<line class="st2" x1="-543.57" y1="416.04" x2="-545.41" y2="180.38"/>
			<g>
				<path d="M-545.37,184.87l-8.96,5.55l-0.21-0.31l5.72-14.73c1.09-5.13,2.17-10.25,3.26-15.38c1.17,5.11,2.33,10.22,3.5,15.32
					l5.95,14.64l-0.15,0.31L-545.37,184.87z"/>
			</g>
		</g>
	</g>
	<g>
		<line class="st1" x1="-382.17" y1="415.06" x2="-384.17" y2="159.02"/>
		<g>
			<line class="st2" x1="-382.17" y1="415.06" x2="-384.02" y2="179.4"/>
			<g>
				<path d="M-383.98,183.89l-8.96,5.55l-0.21-0.31l5.72-14.73c1.09-5.13,2.17-10.25,3.26-15.38c1.17,5.11,2.33,10.22,3.5,15.32
					l5.95,14.64l-0.15,0.31L-383.98,183.89z"/>
			</g>
		</g>
	</g>
	<g>
		<line class="st1" x1="-687.5" y1="256.5" x2="-575.5" y2="144.5"/>
		<g>
			<line class="st2" x1="-687.5" y1="256.5" x2="-589.91" y2="158.91"/>
			<g>
				<path d="M-593.08,162.08l-10.24-2.5l0.07-0.36l14.51-6.26c4.41-2.82,8.83-5.65,13.24-8.47c-2.82,4.41-5.65,8.83-8.47,13.24
					l-6.26,14.51l-0.33,0.11L-593.08,162.08z"/>
			</g>
		</g>
	</g>
	<g>
		<line class="st1" x1="-671.5" y1="272.5" x2="-415.5" y2="144.5"/>
		<g>
			<line class="st2" x1="-671.5" y1="272.5" x2="-433.73" y2="153.61"/>
			<g>
				<path d="M-437.74,155.62l-8.93-5.61l0.18-0.32l15.75-1.35c5.08-1.28,10.16-2.56,15.24-3.84c-4.07,3.3-8.15,6.59-12.22,9.89
					l-10.53,11.79l-0.34,0L-437.74,155.62z"/>
			</g>
		</g>
	</g>
	<g>
		<line class="st1" x1="-223.5" y1="416.5" x2="-224.5" y2="320"/>
		<g>
			<line class="st2" x1="-223.5" y1="416.5" x2="-224.29" y2="340.38"/>
			<g>
				<path d="M-224.24,344.87l-8.95,5.57l-0.21-0.31l5.68-14.75c1.07-5.13,2.14-10.26,3.22-15.39c1.18,5.11,2.36,10.21,3.54,15.32
					l5.99,14.63l-0.15,0.31L-224.24,344.87z"/>
			</g>
		</g>
	</g>
	<path d="M-696.17,276v-2.96c0-0.41-0.34-0.75-0.75-0.75h-16.5c-0.41,0-0.75,0.34-0.75,0.75v9.5l-6.21,1.78
		c-0.39,0.11-0.62,0.52-0.51,0.92c0,0,0,0,0,0l6.73,23.95l0.02,0.05c0.03,0.12,0.09,0.23,0.18,0.32c0.02,0.03,0.04,0.05,0.08,0.07
		c0.01,0.02,0.04,0.03,0.05,0.05c0.04,0.02,0.08,0.04,0.12,0.06c0.04,0.02,0.09,0.04,0.14,0.05c0.05,0.01,0.1,0.01,0.15,0.02h16.5
		c0.37,0,0.69-0.28,0.74-0.64l2.25-15.75c0.01-0.07,0.01-0.14,0-0.2L-696.17,276z M-712.67,273.79h15v1.5h-15V273.79z
		 M-719.24,285.56l5.07-1.46v1.56l-4.66,1.34L-719.24,285.56z M-714.17,287.22v16.38l-4.25-15.16L-714.17,287.22z M-697.57,308.29
		h-15.1v-31.5h15.09l2.15,16.49L-697.57,308.29z"/>
	<path d="M-704.79,291.79c-3.11,0-5.62-2.52-5.62-5.62v-6.38c0-0.41,0.34-0.75,0.75-0.75c0,0,0,0,0,0h9.75
		c0.41,0,0.75,0.34,0.75,0.75c0,0,0,0,0,0v6.38C-699.17,289.27-701.69,291.78-704.79,291.79z M-708.92,280.54v5.62
		c0,2.28,1.85,4.12,4.12,4.12c2.28,0,4.12-1.85,4.12-4.12v-5.62H-708.92z"/>
	<path d="M-370.21,459.74c-0.08-0.14-0.17-0.26-0.27-0.38c-0.22-0.32-0.47-0.62-0.74-0.89c-0.02-0.03-0.04-0.05-0.05-0.07
		l-9.17-9.16c-0.19-0.19-0.29-0.44-0.29-0.71v-22.37c0-0.55-0.45-1-1-1h-14c-0.55,0-1,0.45-1,1v28.17c0,0.8,0.32,1.56,0.88,2.12
		l13.26,13.27c0.04,0.05,0.09,0.09,0.14,0.12c0.01,0.02,0.02,0.04,0.04,0.05c3.21,3.03,8.27,2.88,11.3-0.33
		C-368.59,466.88-368.22,462.83-370.21,459.74z M-394.73,427.16h12v4h-12V427.16z M-394.73,454.33v-21.17h12v15.37
		c0,0.8,0.31,1.56,0.88,2.12l7.68,7.69c-4.31,0.82-7.67,4.22-8.41,8.55l-11.86-11.85C-394.62,454.85-394.73,454.59-394.73,454.33z
		 M-371.38,466.32c-0.22,0.55-0.53,1.07-0.9,1.53c-0.13,0.15-0.27,0.31-0.41,0.45c-1.28,1.3-3.09,1.94-4.9,1.73
		c-0.32-0.03-0.63-0.09-0.93-0.18c-0.02,0-0.03,0-0.04-0.01c-0.16-0.04-0.32-0.09-0.47-0.15c-0.02-0.01-0.03-0.01-0.05-0.02
		c-0.16-0.06-0.32-0.13-0.47-0.21c-0.15-0.07-0.3-0.15-0.44-0.24c-0.11-0.07-0.23-0.14-0.33-0.21c-0.13-0.09-0.24-0.18-0.36-0.27
		c-0.02-0.01-0.03-0.03-0.05-0.04v-0.04c0-4.63,3.72-8.41,8.35-8.5l0.02,0.02c0.1,0.11,0.2,0.23,0.28,0.36
		c0.02,0.03,0.04,0.05,0.06,0.08c0.1,0.14,0.19,0.28,0.27,0.43c0.1,0.15,0.18,0.31,0.25,0.47v0.01c0.08,0.16,0.14,0.32,0.2,0.48
		c0.05,0.13,0.09,0.27,0.13,0.41c0.05,0.17,0.09,0.34,0.12,0.51c0.04,0.18,0.07,0.37,0.08,0.56c0.02,0.19,0.03,0.38,0.03,0.57
		C-370.94,464.83-371.09,465.6-371.38,466.32z"/>
	<path d="M-553.55,469.55c3.03,3.21,8.09,3.36,11.3,0.33c0.02-0.01,0.03-0.03,0.04-0.05c0.05-0.03,0.1-0.07,0.14-0.12l13.26-13.27
		c0.56-0.56,0.88-1.32,0.88-2.12v-28.17c0-0.55-0.45-1-1-1h-14c-0.55,0-1,0.45-1,1v22.37c0,0.27-0.1,0.52-0.29,0.71l-9.17,9.16
		c-0.01,0.02-0.03,0.04-0.05,0.07c-0.27,0.27-0.52,0.57-0.74,0.89c-0.1,0.12-0.19,0.24-0.27,0.38
		C-556.45,462.83-556.08,466.88-553.55,469.55z M-529.94,431.16h-12v-4h12V431.16z M-530.23,455.04l-11.86,11.85
		c-0.74-4.33-4.1-7.73-8.41-8.55l7.68-7.69c0.57-0.56,0.88-1.32,0.88-2.12v-15.37h12v21.17
		C-529.94,454.59-530.04,454.85-530.23,455.04z M-553.73,464.06c0-0.19,0.01-0.38,0.03-0.57c0.01-0.19,0.04-0.38,0.08-0.56
		c0.03-0.17,0.07-0.34,0.12-0.51c0.04-0.14,0.08-0.28,0.13-0.41c0.06-0.16,0.12-0.32,0.2-0.48v-0.01c0.07-0.16,0.15-0.32,0.25-0.47
		c0.08-0.15,0.17-0.29,0.27-0.43c0.02-0.03,0.04-0.05,0.06-0.08c0.08-0.13,0.18-0.25,0.28-0.36l0.02-0.02
		c4.63,0.09,8.35,3.87,8.35,8.5v0.04c-0.02,0.01-0.03,0.03-0.05,0.04c-0.12,0.09-0.23,0.18-0.36,0.27c-0.1,0.07-0.22,0.14-0.33,0.21
		c-0.14,0.09-0.29,0.17-0.44,0.24c-0.15,0.08-0.31,0.15-0.47,0.21c-0.02,0.01-0.03,0.01-0.05,0.02c-0.15,0.06-0.31,0.11-0.47,0.15
		c-0.01,0.01-0.02,0.01-0.04,0.01c-0.3,0.09-0.61,0.15-0.93,0.18c-1.81,0.21-3.62-0.43-4.9-1.73c-0.14-0.14-0.28-0.3-0.41-0.45
		c-0.37-0.46-0.68-0.98-0.9-1.53C-553.57,465.6-553.72,464.83-553.73,464.06z"/>
	<path d="M-361.01,124.53l-28.61-12.39c-1.19-0.52-2.57-0.21-3.43,0.76c-3.69,4.09-9.53,4.58-11.88,4.6c-1.39,0-2.59,0.96-2.9,2.31
		c-0.74,3.58-0.6,7.28,0.42,10.79v2.85c0,1.65,1.35,3,3,3h42c2.04-0.03,3.94-1.02,5.13-2.67c0.6-1.01,0.9-2.16,0.87-3.33
		C-356.41,126.87-360.78,124.65-361.01,124.53z M-405.87,120.25c0.11-0.44,0.5-0.75,0.96-0.75c3.24-0.03,9.28-0.75,13.35-5.26
		c0.28-0.33,0.74-0.44,1.14-0.27l3.72,1.61l-1.92,2.89c-0.3,0.45-0.19,1.07,0.27,1.37c0,0,0.01,0.01,0.01,0.01
		c0.16,0.11,0.35,0.17,0.55,0.17c0.33,0,0.65-0.17,0.83-0.45l2.12-3.18l2.02,0.87l-1.92,2.89c-0.3,0.45-0.18,1.07,0.27,1.37
		c0,0,0.01,0,0.01,0.01c0.16,0.11,0.35,0.17,0.55,0.17c0.33,0,0.65-0.17,0.83-0.45l2.12-3.18l2.02,0.87l-1.92,2.88
		c-0.31,0.46-0.19,1.08,0.27,1.39c0.17,0.11,0.36,0.17,0.56,0.17c0.33,0,0.64-0.17,0.83-0.44l2.13-3.19l2.01,0.87l-1.92,2.89
		c-0.3,0.45-0.19,1.07,0.27,1.37c0,0,0.01,0.01,0.01,0.01c0.16,0.11,0.35,0.17,0.55,0.17c0.33,0,0.65-0.17,0.83-0.45l2.12-3.18
		l11.34,4.91c0.03,0.02,2.5,1.3,3.24,3.11h-47.03C-406.41,126.44-406.49,123.3-405.87,120.25z M-358.98,132.72
		c-0.82,1.06-2.08,1.7-3.43,1.73h-42c-0.55,0-1-0.45-1-1v-2h46.91C-358.58,131.9-358.74,132.33-358.98,132.72z"/>
	<path d="M-576.29,130.45c-0.03,1.17,0.27,2.32,0.87,3.33c1.19,1.65,3.09,2.64,5.13,2.67h42c1.65,0,3-1.35,3-3v-2.85
		c1.02-3.51,1.16-7.21,0.42-10.79c-0.31-1.35-1.51-2.31-2.9-2.31c-2.35-0.02-8.19-0.51-11.88-4.6c-0.86-0.97-2.24-1.28-3.43-0.76
		l-28.61,12.39C-571.92,124.65-576.29,126.87-576.29,130.45z M-527.05,129.45h-47.03c0.74-1.81,3.21-3.09,3.24-3.11l11.34-4.91
		l2.12,3.18c0.18,0.28,0.5,0.45,0.83,0.45c0.2,0,0.39-0.06,0.55-0.17c0,0,0.01-0.01,0.01-0.01c0.45-0.3,0.57-0.92,0.27-1.37
		l-1.92-2.89l2.01-0.87l2.13,3.19c0.19,0.27,0.5,0.44,0.83,0.44c0.2,0,0.39-0.06,0.56-0.17c0.46-0.31,0.58-0.93,0.27-1.39
		l-1.92-2.88l2.02-0.87l2.12,3.18c0.18,0.28,0.5,0.45,0.83,0.45c0.2,0,0.39-0.06,0.55-0.17c0,0,0.01,0,0.01-0.01
		c0.45-0.3,0.57-0.92,0.27-1.37l-1.92-2.89l2.02-0.87l2.12,3.18c0.18,0.28,0.5,0.45,0.83,0.45c0.2,0,0.39-0.06,0.55-0.17
		c0,0,0.01-0.01,0.01-0.01c0.45-0.3,0.57-0.92,0.27-1.37l-1.92-2.89l3.72-1.61c0.4-0.17,0.86-0.06,1.14,0.27
		c4.07,4.51,10.11,5.23,13.35,5.26c0.46,0,0.85,0.31,0.96,0.75C-526.22,123.3-526.29,126.44-527.05,129.45z M-574.2,131.45h46.91v2
		c0,0.55-0.45,1-1,1h-42c-1.35-0.03-2.61-0.67-3.43-1.73C-573.96,132.33-574.12,131.9-574.2,131.45z"/>
	<path d="M-207.2,433.58l-13.27-4.42c-0.23-0.07-0.47-0.11-0.71-0.11h-11.52c-0.24,0-0.48,0.04-0.71,0.11l-13.27,4.42
		c-0.39,0.14-0.6,0.56-0.47,0.95l3,9c0.13,0.39,0.56,0.6,0.95,0.47l3.51-1.17v21.46c0,0.41,0.34,0.75,0.75,0.75h24
		c0.41,0,0.75-0.34,0.75-0.75v-21.46l3.51,1.17c0.39,0.13,0.82-0.08,0.95-0.47l3-9C-206.6,434.13-206.81,433.71-207.2,433.58z
		 M-221.74,430.54c-0.42,2.87-3.08,4.86-5.95,4.45c-2.3-0.33-4.11-2.14-4.45-4.45H-221.74z M-210.91,442.34l-3.79-1.26
		c-0.23-0.08-0.48-0.04-0.68,0.11c-0.2,0.14-0.32,0.37-0.31,0.61v21.75h-22.5v-21.75c0-0.24-0.12-0.47-0.32-0.61
		c-0.19-0.14-0.45-0.18-0.68-0.11l-3.79,1.26l-2.53-7.58l11.89-3.96c0.56,3.68,3.99,6.22,7.67,5.66c2.93-0.44,5.22-2.74,5.66-5.66
		l11.89,3.96L-210.91,442.34z"/>
	<path d="M-222.44,449.29c-2.07,0-3.75-1.68-3.75-3.75v-3.75c0-0.41,0.34-0.75,0.75-0.75c0,0,0,0,0,0h6c0.41,0,0.75,0.34,0.75,0.75
		c0,0,0,0,0,0v3.75C-218.69,447.61-220.37,449.29-222.44,449.29z M-224.69,442.54v3c0,1.24,1.01,2.25,2.25,2.25
		c1.24,0,2.25-1.01,2.25-2.25v-3H-224.69z"/>
	<path d="M-213.69,267.04h-16.5c-4.97,0-9,4.03-9,9v26.25c0,0.41,0.34,0.75,0.75,0.75h6.75c0.41,0,0.75-0.34,0.75-0.75v-0.75h18
		v0.75c0,0.41,0.34,0.75,0.75,0.75h6.75c0.41,0,0.75-0.34,0.75-0.75v-26.25C-204.69,271.07-208.72,267.04-213.69,267.04z
		 M-216.74,268.54c-0.42,2.87-3.08,4.86-5.95,4.45c-2.3-0.33-4.11-2.14-4.45-4.45H-216.74z M-232.44,301.54h-5.25v-1.5h5.25V301.54z
		 M-206.19,301.54h-5.25v-1.5h5.25V301.54z M-206.19,298.54h-5.25v-18.75c0-0.41-0.34-0.75-0.75-0.75c-0.41,0-0.75,0.34-0.75,0.75
		v20.25h-18v-20.25c0-0.41-0.34-0.75-0.75-0.75c-0.41,0-0.75,0.34-0.75,0.75v18.75h-5.25v-22.5c0.01-4.14,3.36-7.49,7.5-7.5h1.54
		c0,0.03,0,0.06,0.01,0.09c0.46,3.7,3.84,6.32,7.54,5.86c3.06-0.38,5.47-2.8,5.86-5.86c0.01-0.03,0.01-0.06,0.01-0.09h1.55
		c4.14,0.01,7.49,3.36,7.5,7.5V298.54z"/>
	<circle class="st0" cx="128.5" cy="256.5" r="32"/>
	<circle class="st0" cx="383.35" cy="255.48" r="32"/>
	<circle class="st0" cx="639.35" cy="255.48" r="32"/>
	<circle class="st0" cx="383.35" cy="447.48" r="32"/>
	<circle class="st0" cx="383.35" cy="63.48" r="32"/>
	<g>
		<line class="st1" x1="383.5" y1="224" x2="383.5" y2="95.5"/>
		<g>
			<line class="st2" x1="383.5" y1="224" x2="383.5" y2="115.88"/>
			<g>
				<path d="M383.5,120.37l-9.01,5.48l-0.2-0.31l5.83-14.69c1.13-5.12,2.25-10.23,3.38-15.35c1.13,5.12,2.25,10.23,3.38,15.35
					l5.83,14.69l-0.15,0.31L383.5,120.37z"/>
			</g>
		</g>
	</g>
	<g>
		<line class="st1" x1="152.5" y1="232.5" x2="360.5" y2="88.5"/>
		<g>
			<line class="st2" x1="152.5" y1="232.5" x2="343.74" y2="100.1"/>
			<g>
				<path d="M340.05,102.66l-9.63-4.29l0.14-0.34l15.4-3.56c4.85-1.99,9.7-3.97,14.54-5.96c-3.57,3.84-7.13,7.68-10.7,11.52
					l-8.76,13.16l-0.34,0.05L340.05,102.66z"/>
			</g>
		</g>
	</g>
	<g>
		<line class="st1" x1="616.5" y1="232.5" x2="408.5" y2="88.5"/>
		<g>
			<line class="st2" x1="616.5" y1="232.5" x2="425.26" y2="100.1"/>
			<g>
				<path d="M428.95,102.66l-0.62,10.52l-0.37-0.01l-8.76-13.16c-3.57-3.84-7.13-7.68-10.7-11.52c4.85,1.99,9.7,3.97,14.54,5.96
					l15.4,3.56l0.17,0.3L428.95,102.66z"/>
			</g>
		</g>
	</g>
	<g>
		<line class="st1" x1="360.5" y1="424.5" x2="152.5" y2="280.5"/>
		<g>
			<line class="st2" x1="360.5" y1="424.5" x2="169.26" y2="292.1"/>
			<g>
				<path d="M172.95,294.66l-0.62,10.52l-0.37-0.01l-8.76-13.16c-3.57-3.84-7.13-7.68-10.7-11.52c4.85,1.99,9.7,3.97,14.54,5.96
					l15.4,3.56l0.17,0.3L172.95,294.66z"/>
			</g>
		</g>
	</g>
	<g>
		<line class="st1" x1="383.5" y1="416" x2="383.5" y2="287.5"/>
		<g>
			<line class="st2" x1="383.5" y1="416" x2="383.5" y2="307.88"/>
			<g>
				<path d="M383.5,312.37l-9.01,5.48l-0.2-0.31l5.83-14.69c1.13-5.12,2.25-10.23,3.38-15.35c1.13,5.12,2.25,10.23,3.38,15.35
					l5.83,14.69l-0.15,0.31L383.5,312.37z"/>
			</g>
		</g>
	</g>
	<g>
		<line class="st1" x1="408.5" y1="424.5" x2="616.5" y2="280.5"/>
		<g>
			<line class="st2" x1="408.5" y1="424.5" x2="599.74" y2="292.1"/>
			<g>
				<path d="M596.05,294.66l-9.63-4.29l0.14-0.34l15.4-3.56c4.85-1.99,9.7-3.97,14.54-5.96c-3.57,3.84-7.13,7.68-10.7,11.52
					l-8.76,13.16l-0.34,0.05L596.05,294.66z"/>
			</g>
		</g>
	</g>
	<g>
		<g>
			<defs>
				<rect id="SVGID_1_" x="366.82" y="431.34" width="33" height="31"/>
			</defs>
			<clipPath id="SVGID_2_">
				<use xlink:href="#SVGID_1_"  style="overflow:visible;"/>
			</clipPath>
			<path class="st3" d="M381.86,434.14c0.25-1.01,0.39-1.22,0.83-1.33c0.32-0.07,1.51-0.07,2.26-0.07c3.63,0,5.24,0.14,5.24,2.94
				c0,0.54-0.14,1.94-0.29,2.87c-0.04,0.14-0.11,0.57-0.11,0.68c0,0.22,0.11,0.47,0.43,0.47c0.4,0,0.47-0.29,0.54-0.83l0.97-6.25
				c0.04-0.14,0.07-0.5,0.07-0.61c0-0.4-0.36-0.4-0.97-0.4H370.9c-0.86,0-0.9,0.04-1.15,0.72l-2.15,6.32
				c-0.04,0.07-0.22,0.58-0.22,0.65c0,0.22,0.18,0.4,0.43,0.4c0.36,0,0.4-0.18,0.61-0.75c1.94-5.57,2.87-6.21,8.19-6.21h1.4
				c1.01,0,1.01,0.14,1.01,0.43c0,0.22-0.11,0.65-0.14,0.75l-4.81,19.18c-0.32,1.33-0.43,1.72-4.27,1.72c-1.29,0-1.51,0-1.51,0.68
				c0,0.43,0.4,0.43,0.61,0.43c0.97,0,1.98-0.07,2.95-0.07c1,0,2.05-0.04,3.05-0.04c1,0,2.01,0.04,2.98,0.04
				c1.04,0,2.12,0.07,3.12,0.07c0.36,0,0.79,0,0.79-0.72c0-0.4-0.29-0.4-1.22-0.4c-0.9,0-1.36,0-2.3-0.07
				c-1.04-0.11-1.33-0.21-1.33-0.79c0-0.04,0-0.22,0.14-0.75L381.86,434.14"/>
			<path class="st3" d="M395.82,445.4c0-0.68-0.05-0.7-0.75-0.7c-1.6,1.58-3.88,1.6-4.91,1.6v0.9c0.6,0,2.26,0,3.63-0.7v12.78
				c0,0.83,0,1.15-2.51,1.15h-0.95v0.9c0.45-0.02,3.53-0.1,4.46-0.1c0.78,0,3.93,0.07,4.49,0.1v-0.9h-0.95
				c-2.51,0-2.51-0.33-2.51-1.15V445.4"/>
			<path class="st4" d="M383.32,446.84L383.32,446.84z"/>
		</g>
		<polygon class="st5" points="382.79,447.81 382.79,447.81 382.79,447.81 382.79,447.81 382.79,447.81 382.79,447.81 
			382.79,447.81 382.79,447.81 382.79,447.81 382.79,447.81 382.79,447.81 382.79,447.81 382.79,447.81 382.79,447.81 
			382.79,447.81 382.79,447.81 382.79,447.81 382.79,447.81 382.79,447.81 382.79,447.81 382.79,447.81 382.79,447.81 
			382.79,447.81 382.79,447.81 382.79,447.81 382.79,447.81 382.79,447.81 382.79,447.81 382.79,447.81 382.79,447.81 
			382.79,447.81 382.79,447.81 382.79,447.81 382.79,447.81 382.79,447.81 382.79,447.81 382.79,447.81 382.79,447.81 
			382.79,447.81 382.79,447.81 382.79,447.81 382.79,447.81 382.79,447.81 382.79,447.81 382.79,447.81 382.79,447.81 
			382.79,447.81 382.79,447.81 382.79,447.81 382.79,447.81 382.79,447.81 382.79,447.81 382.79,447.81 382.79,447.81 
			382.79,447.81 382.79,447.81 382.79,447.81 382.79,447.81 382.79,447.81 382.79,447.81 382.79,447.81 382.79,447.81 
			382.79,447.81 382.79,447.81 382.79,447.81 382.79,447.81 382.79,447.81 382.79,447.81 382.79,447.81 382.79,447.81 
			382.79,447.81 382.79,447.81 382.79,447.81 382.79,447.81 382.79,447.81 382.79,447.81 382.79,447.81 382.79,447.81 
			382.79,447.81 382.79,447.81 382.79,447.81 382.79,447.81 382.79,447.81 382.79,447.81 382.79,447.81 		"/>
	</g>
	<g>
		<g>
			<defs>
				<rect id="SVGID_3_" x="117.68" y="240.64" width="34" height="31"/>
			</defs>
			<clipPath id="SVGID_4_">
				<use xlink:href="#SVGID_3_"  style="overflow:visible;"/>
			</clipPath>
			<path class="st6" d="M132.72,243.44c0.25-1.01,0.39-1.22,0.82-1.33c0.32-0.07,1.51-0.07,2.26-0.07c3.63,0,5.24,0.14,5.24,2.94
				c0,0.54-0.14,1.94-0.29,2.87c-0.04,0.14-0.11,0.57-0.11,0.68c0,0.22,0.11,0.47,0.43,0.47c0.4,0,0.47-0.29,0.54-0.83l0.97-6.25
				c0.04-0.14,0.07-0.5,0.07-0.61c0-0.4-0.36-0.4-0.97-0.4h-19.93c-0.86,0-0.9,0.04-1.15,0.72l-2.15,6.32
				c-0.04,0.07-0.22,0.57-0.22,0.65c0,0.22,0.18,0.4,0.43,0.4c0.36,0,0.4-0.18,0.61-0.75c1.94-5.57,2.87-6.21,8.19-6.21h1.4
				c1.01,0,1.01,0.14,1.01,0.43c0,0.22-0.11,0.65-0.14,0.75l-4.81,19.18c-0.32,1.33-0.43,1.72-4.27,1.72c-1.29,0-1.51,0-1.51,0.68
				c0,0.43,0.4,0.43,0.61,0.43c0.97,0,1.97-0.07,2.95-0.07c1,0,2.05-0.04,3.05-0.04c1,0,2.01,0.04,2.98,0.04
				c1.04,0,2.12,0.07,3.12,0.07c0.36,0,0.79,0,0.79-0.72c0-0.4-0.29-0.4-1.22-0.4c-0.9,0-1.36,0-2.3-0.07
				c-1.04-0.11-1.33-0.21-1.33-0.79c0-0.04,0-0.22,0.14-0.75L132.72,243.44"/>
			<path class="st6" d="M150.94,266.08h-0.85c-0.07,0.55-0.32,2.03-0.65,2.28c-0.2,0.15-2.13,0.15-2.48,0.15h-4.61
				c2.63-2.33,3.51-3.03,5.01-4.21c1.85-1.48,3.58-3.03,3.58-5.41c0-3.03-2.66-4.89-5.87-4.89c-3.11,0-5.21,2.18-5.21,4.49
				c0,1.28,1.08,1.4,1.33,1.4c0.6,0,1.33-0.43,1.33-1.33c0-0.45-0.18-1.33-1.48-1.33c0.78-1.78,2.48-2.33,3.66-2.33
				c2.51,0,3.81,1.96,3.81,3.99c0,2.18-1.55,3.91-2.36,4.81l-6.04,5.96c-0.25,0.23-0.25,0.28-0.25,0.98h10.32L150.94,266.08"/>
			<path class="st7" d="M134.68,256.14L134.68,256.14z"/>
		</g>
		<polygon class="st5" points="134.15,257.12 134.15,257.12 134.15,257.12 134.15,257.12 134.15,257.12 134.15,257.12 
			134.15,257.12 134.15,257.12 134.15,257.12 134.15,257.12 134.15,257.12 134.15,257.12 134.15,257.12 134.15,257.12 
			134.15,257.12 134.15,257.12 134.15,257.12 134.15,257.12 134.15,257.12 134.15,257.12 134.15,257.12 134.15,257.12 
			134.15,257.12 134.15,257.12 134.15,257.12 134.15,257.12 134.15,257.12 134.15,257.12 134.15,257.12 134.15,257.12 
			134.15,257.12 134.15,257.12 134.15,257.12 134.15,257.12 134.15,257.12 134.15,257.12 134.15,257.12 134.15,257.12 
			134.15,257.12 134.15,257.12 134.15,257.12 134.15,257.12 134.15,257.12 134.15,257.12 134.15,257.12 134.15,257.12 
			134.15,257.12 134.15,257.12 134.15,257.12 134.15,257.12 134.15,257.12 134.15,257.12 134.15,257.12 134.15,257.12 
			134.15,257.12 134.15,257.12 134.15,257.12 134.15,257.12 134.15,257.12 134.15,257.12 134.15,257.12 134.15,257.12 
			134.15,257.12 134.15,257.12 134.15,257.12 134.15,257.12 134.15,257.12 134.15,257.12 134.15,257.12 134.15,257.12 
			134.15,257.12 134.15,257.12 134.15,257.12 134.15,257.12 134.15,257.12 134.15,257.12 134.15,257.12 134.15,257.12 
			134.15,257.12 134.15,257.12 134.15,257.12 134.15,257.12 134.15,257.12 134.15,257.12 134.15,257.12 		"/>
	</g>
	<g>
		<g>
			<defs>
				<rect id="SVGID_5_" x="367.44" y="238.38" width="34" height="31"/>
			</defs>
			<clipPath id="SVGID_6_">
				<use xlink:href="#SVGID_5_"  style="overflow:visible;"/>
			</clipPath>
			<path class="st8" d="M382.47,241.18c0.25-1.01,0.39-1.22,0.83-1.33c0.32-0.07,1.51-0.07,2.26-0.07c3.63,0,5.24,0.14,5.24,2.94
				c0,0.54-0.14,1.94-0.29,2.87c-0.04,0.14-0.11,0.57-0.11,0.68c0,0.22,0.11,0.47,0.43,0.47c0.4,0,0.47-0.29,0.54-0.83l0.97-6.25
				c0.04-0.14,0.07-0.5,0.07-0.61c0-0.4-0.36-0.4-0.97-0.4h-19.93c-0.86,0-0.9,0.04-1.15,0.72l-2.15,6.32
				c-0.04,0.07-0.22,0.57-0.22,0.65c0,0.22,0.18,0.4,0.43,0.4c0.36,0,0.4-0.18,0.61-0.75c1.94-5.57,2.87-6.21,8.19-6.21h1.4
				c1.01,0,1.01,0.14,1.01,0.43c0,0.22-0.11,0.65-0.14,0.75l-4.81,19.18c-0.32,1.33-0.43,1.72-4.27,1.72c-1.29,0-1.51,0-1.51,0.68
				c0,0.43,0.4,0.43,0.61,0.43c0.97,0,1.98-0.07,2.95-0.07c1,0,2.05-0.04,3.05-0.04c1,0,2.01,0.04,2.98,0.04
				c1.04,0,2.12,0.07,3.12,0.07c0.36,0,0.79,0,0.79-0.72c0-0.4-0.29-0.4-1.22-0.4c-0.9,0-1.36,0-2.3-0.07
				c-1.04-0.11-1.33-0.21-1.33-0.79c0-0.04,0-0.22,0.14-0.75L382.47,241.18"/>
			<path class="st8" d="M394.88,260.01c1.95,0,3.36,1.35,3.36,4.04c0,3.11-1.8,4.04-3.26,4.04c-1,0-3.21-0.28-4.26-1.75
				c1.18-0.05,1.45-0.88,1.45-1.4c0-0.8-0.6-1.38-1.38-1.38c-0.7,0-1.4,0.43-1.4,1.45c0,2.35,2.61,3.88,5.64,3.88
				c3.48,0,5.89-2.33,5.89-4.84c0-1.95-1.6-3.91-4.36-4.49c2.63-0.95,3.58-2.83,3.58-4.36c0-1.98-2.28-3.46-5.06-3.46
				c-2.78,0-4.91,1.35-4.91,3.36c0,0.85,0.55,1.33,1.3,1.33c0.78,0,1.28-0.58,1.28-1.28c0-0.73-0.5-1.25-1.28-1.3
				c0.88-1.1,2.61-1.38,3.53-1.38c1.13,0,2.71,0.55,2.71,2.73c0,1.05-0.35,2.2-1,2.98c-0.83,0.95-1.53,1-2.78,1.08
				c-0.63,0.05-0.68,0.05-0.8,0.07c-0.05,0-0.25,0.05-0.25,0.33c0,0.35,0.23,0.35,0.65,0.35H394.88"/>
			<path class="st9" d="M384.44,253.88L384.44,253.88z"/>
		</g>
		<polygon class="st5" points="383.9,254.35 383.9,254.35 383.9,254.35 383.9,254.35 383.9,254.35 383.9,254.35 383.9,254.35 
			383.9,254.35 383.9,254.35 383.9,254.35 383.9,254.35 383.9,254.35 383.9,254.35 383.9,254.35 383.9,254.35 383.9,254.35 
			383.9,254.35 383.9,254.35 383.9,254.35 383.9,254.35 383.9,254.35 383.9,254.35 383.9,254.35 383.9,254.35 383.9,254.35 
			383.9,254.35 383.9,254.35 383.9,254.35 383.9,254.35 383.9,254.35 383.9,254.35 383.9,254.35 383.9,254.35 383.9,254.35 
			383.9,254.35 383.9,254.35 383.9,254.35 383.9,254.35 383.9,254.35 383.9,254.35 383.9,254.35 383.9,254.35 383.9,254.35 
			383.9,254.35 383.9,254.35 383.9,254.35 383.9,254.35 383.9,254.35 383.9,254.35 383.9,254.35 383.9,254.35 383.9,254.35 
			383.9,254.35 383.9,254.35 383.9,254.35 383.9,254.35 383.9,254.35 383.9,254.35 383.9,254.35 383.9,254.35 383.9,254.35 
			383.9,254.35 383.9,254.35 383.9,254.35 383.9,254.35 383.9,254.35 383.9,254.35 383.9,254.35 383.9,254.35 383.9,254.35 
			383.9,254.35 383.9,254.35 383.9,254.35 383.9,254.35 383.9,254.35 383.9,254.35 383.9,254.35 383.9,254.35 383.9,254.35 
			383.9,254.35 383.9,254.35 383.9,254.35 383.9,254.35 383.9,254.35 383.9,254.35 		"/>
	</g>
	<g>
		<g>
			<defs>
				<rect id="SVGID_7_" x="623.97" y="241.76" width="34" height="31"/>
			</defs>
			<clipPath id="SVGID_8_">
				<use xlink:href="#SVGID_7_"  style="overflow:visible;"/>
			</clipPath>
			<path class="st10" d="M639,244.56c0.25-1.01,0.39-1.22,0.83-1.33c0.32-0.07,1.51-0.07,2.26-0.07c3.63,0,5.24,0.14,5.24,2.94
				c0,0.54-0.14,1.94-0.29,2.87c-0.04,0.14-0.11,0.57-0.11,0.68c0,0.22,0.11,0.47,0.43,0.47c0.4,0,0.47-0.29,0.54-0.83l0.97-6.25
				c0.04-0.14,0.07-0.5,0.07-0.61c0-0.4-0.36-0.4-0.97-0.4h-19.93c-0.86,0-0.9,0.04-1.15,0.72l-2.15,6.32
				c-0.04,0.07-0.22,0.57-0.22,0.65c0,0.22,0.18,0.4,0.43,0.4c0.36,0,0.4-0.18,0.61-0.75c1.94-5.57,2.87-6.21,8.19-6.21h1.4
				c1.01,0,1.01,0.14,1.01,0.43c0,0.22-0.11,0.65-0.14,0.75l-4.81,19.18c-0.32,1.33-0.43,1.72-4.27,1.72c-1.29,0-1.51,0-1.51,0.68
				c0,0.43,0.4,0.43,0.61,0.43c0.97,0,1.98-0.07,2.95-0.07c1,0,2.05-0.04,3.05-0.04c1,0,2.01,0.04,2.98,0.04
				c1.04,0,2.12,0.07,3.12,0.07c0.36,0,0.79,0,0.79-0.72c0-0.4-0.29-0.4-1.22-0.4c-0.9,0-1.36,0-2.3-0.07
				c-1.04-0.11-1.33-0.21-1.33-0.79c0-0.04,0-0.22,0.14-0.75L639,244.56"/>
			<path class="st10" d="M653.09,257.57v9.17h-6.62L653.09,257.57z M657.83,267.65v-0.9h-2.78v-11.18c0-0.53,0-0.7-0.55-0.7
				c-0.3,0-0.4,0-0.65,0.35l-8.3,11.53v0.9h7.37v2.06c0,0.85,0,1.15-2.03,1.15h-0.68v0.9c1.25-0.05,2.86-0.1,3.76-0.1
				c0.93,0,2.53,0.05,3.78,0.1v-0.9h-0.68c-2.03,0-2.03-0.3-2.03-1.15v-2.06H657.83z"/>
			<path class="st11" d="M640.97,257.26L640.97,257.26z"/>
		</g>
		<polygon class="st5" points="640.43,258.23 640.43,258.23 640.43,258.23 640.43,258.23 640.43,258.23 640.43,258.23 
			640.43,258.23 640.43,258.23 640.43,258.23 640.43,258.23 640.43,258.23 640.43,258.23 640.43,258.23 640.43,258.23 
			640.43,258.23 640.43,258.23 640.43,258.23 640.43,258.23 640.43,258.23 640.43,258.23 640.43,258.23 640.43,258.23 
			640.43,258.23 640.43,258.23 640.43,258.23 640.43,258.23 640.43,258.23 640.43,258.23 640.43,258.23 640.43,258.23 
			640.43,258.23 640.43,258.23 640.43,258.23 640.43,258.23 640.43,258.23 640.43,258.23 640.43,258.23 640.43,258.23 
			640.43,258.23 640.43,258.23 640.43,258.23 640.43,258.23 640.43,258.23 640.43,258.23 640.43,258.23 640.43,258.23 
			640.43,258.23 640.43,258.23 640.43,258.23 640.43,258.23 640.43,258.23 640.43,258.23 640.43,258.23 640.43,258.23 
			640.43,258.23 640.43,258.23 640.43,258.23 640.43,258.23 640.43,258.23 640.43,258.23 640.43,258.23 640.43,258.23 
			640.43,258.23 640.43,258.23 640.43,258.23 640.43,258.23 640.43,258.23 640.43,258.23 640.43,258.23 640.43,258.23 
			640.43,258.23 640.43,258.23 640.43,258.23 640.43,258.23 640.43,258.23 640.43,258.23 640.43,258.23 640.43,258.23 
			640.43,258.23 640.43,258.23 640.43,258.23 640.43,258.23 640.43,258.23 640.43,258.23 640.43,258.23 		"/>
	</g>
	<g>
		<g>
			<defs>
				<rect id="SVGID_9_" x="367.74" y="47.57" width="34" height="31"/>
			</defs>
			<clipPath id="SVGID_10_">
				<use xlink:href="#SVGID_9_"  style="overflow:visible;"/>
			</clipPath>
			<path class="st12" d="M382.77,50.37c0.25-1.01,0.39-1.22,0.83-1.33c0.32-0.07,1.51-0.07,2.26-0.07c3.63,0,5.24,0.14,5.24,2.94
				c0,0.54-0.14,1.94-0.29,2.87c-0.04,0.14-0.11,0.57-0.11,0.68c0,0.22,0.11,0.47,0.43,0.47c0.4,0,0.47-0.29,0.54-0.83l0.97-6.25
				c0.04-0.14,0.07-0.5,0.07-0.61c0-0.4-0.36-0.4-0.97-0.4h-19.93c-0.86,0-0.9,0.04-1.15,0.72l-2.15,6.32
				c-0.04,0.07-0.22,0.57-0.22,0.65c0,0.22,0.18,0.4,0.43,0.4c0.36,0,0.4-0.18,0.61-0.75c1.94-5.57,2.87-6.21,8.19-6.21h1.4
				c1.01,0,1.01,0.14,1.01,0.43c0,0.22-0.11,0.65-0.14,0.75l-4.81,19.18c-0.32,1.33-0.43,1.72-4.27,1.72c-1.29,0-1.51,0-1.51,0.68
				c0,0.43,0.4,0.43,0.61,0.43c0.97,0,1.98-0.07,2.95-0.07c1,0,2.05-0.04,3.05-0.04c1,0,2.01,0.04,2.98,0.04
				c1.04,0,2.12,0.07,3.12,0.07c0.36,0,0.79,0,0.79-0.72c0-0.4-0.29-0.4-1.22-0.4c-0.9,0-1.36,0-2.3-0.07
				c-1.04-0.11-1.33-0.21-1.33-0.79c0-0.04,0-0.22,0.14-0.75L382.77,50.37"/>
			<path class="st12" d="M392.22,63.59c1.28,0.33,2.03,0.33,2.43,0.33c3.31,0,5.26-2.26,5.26-2.63c0-0.28-0.18-0.35-0.3-0.35
				c-0.05,0-0.1,0-0.2,0.08c-0.6,0.22-1.93,0.73-3.78,0.73c-0.7,0-2.03-0.05-3.66-0.68c-0.25-0.12-0.3-0.12-0.33-0.12
				c-0.33,0-0.33,0.28-0.33,0.68V69c0,0.43,0,0.73,0.4,0.73c0.23,0,0.25-0.05,0.5-0.35c1.08-1.38,2.61-1.58,3.48-1.58
				c1.5,0,2.18,1.2,2.31,1.4c0.45,0.83,0.6,1.78,0.6,3.23c0,0.75,0,2.23-0.75,3.33c-0.63,0.9-1.7,1.5-2.93,1.5
				c-1.63,0-3.31-0.9-3.94-2.56c0.95,0.07,1.43-0.55,1.43-1.23c0-1.08-0.93-1.28-1.25-1.28c-0.05,0-1.25,0-1.25,1.35
				c0,2.26,2.05,4.51,5.06,4.51c3.21,0,6.02-2.38,6.02-5.54c0-2.83-2.16-5.44-5.26-5.44c-1.1,0-2.41,0.28-3.51,1.23V63.59"/>
			<path class="st13" d="M384.74,63.07L384.74,63.07z"/>
		</g>
		<polygon class="st5" points="384.2,63.54 384.2,63.54 384.2,63.54 384.2,63.54 384.2,63.54 384.2,63.54 384.2,63.54 384.2,63.54 
			384.2,63.54 384.2,63.54 384.2,63.54 384.2,63.54 384.2,63.54 384.2,63.54 384.2,63.54 384.2,63.54 384.2,63.54 384.2,63.54 
			384.2,63.54 384.2,63.54 384.2,63.54 384.2,63.54 384.2,63.54 384.2,63.54 384.2,63.54 384.2,63.54 384.2,63.54 384.2,63.54 
			384.2,63.54 384.2,63.54 384.2,63.54 384.2,63.54 384.2,63.54 384.2,63.54 384.2,63.54 384.2,63.54 384.2,63.54 384.2,63.54 
			384.2,63.54 384.2,63.54 384.2,63.54 384.2,63.54 384.2,63.54 384.2,63.54 384.2,63.54 384.2,63.54 384.2,63.54 384.2,63.54 
			384.2,63.54 384.2,63.54 384.2,63.54 384.2,63.54 384.2,63.54 384.2,63.54 384.2,63.54 384.2,63.54 384.2,63.54 384.2,63.54 
			384.2,63.54 384.2,63.54 384.2,63.54 384.2,63.54 384.2,63.54 384.2,63.54 384.2,63.54 384.2,63.54 384.2,63.54 384.2,63.54 
			384.2,63.54 384.2,63.54 384.2,63.54 384.2,63.54 384.2,63.54 384.2,63.54 384.2,63.54 384.2,63.54 384.2,63.54 384.2,63.54 
			384.2,63.54 384.2,63.54 384.2,63.54 384.2,63.54 384.2,63.54 384.2,63.54 384.2,63.54 		"/>
	</g>
</g>
<g id="clothes">
	<g>
		<path d="M-689.22,436.54h-34.5c-1.24,0-2.25,1.01-2.25,2.25v8.42c0,0.56,0.2,1.09,0.58,1.51l12.67,14.08
			c0.17,0.19,0.37,0.34,0.59,0.46c0.33,0.18,0.7,0.28,1.08,0.28h9.17c0.38,0,0.74-0.1,1.07-0.28c0.05-0.03,0.1-0.06,0.15-0.1
			c0.01,0,0.02,0,0.02-0.01c0.16-0.1,0.3-0.21,0.43-0.35l12.67-14.08c0.37-0.41,0.58-0.95,0.58-1.51v-8.42
			C-686.98,437.55-687.98,436.54-689.22,436.54z M-723.42,448.67c5.24,0.72,9.48,4.63,10.63,9.8c0.18,0.77,0.28,1.56,0.31,2.35
			L-723.42,448.67z M-700.46,460.82c0.02-0.8,0.13-1.59,0.32-2.36c1.15-5.16,5.38-9.07,10.62-9.79L-700.46,460.82z M-688.47,447.05
			c-6.37,0.31-11.75,4.84-13.13,11.06c-0.25,1.04-0.37,2.1-0.37,3.17c0,0.25,0.01,0.5,0.02,0.75H-711c0.02-0.25,0.02-0.5,0.02-0.75
			c0-1.07-0.12-2.13-0.36-3.17c-1.39-6.23-6.77-10.76-13.14-11.07v-4.52h36V447.05z M-688.47,441.04h-36v-2.25
			c0-0.41,0.34-0.75,0.75-0.75h34.5c0.41,0,0.75,0.34,0.75,0.75V441.04z"/>
	</g>
</g>
</svg>
